<svg version="1" xmlns="http://www.w3.org/2000/svg" width="933.333" height="933.333" viewBox="0 0 700.000000 700.000000"><path d="M303.3 2.1c-24.6 12.3-21 46.4 5.7 53.8 3.4.9 3.4.9.7 1l-2.9.1.6 7.7c.4 4.3.8 8.9 1.1 10.3.2 1.4.7 6.1 1 10.5 1.1 12.7 1.4 16.5 2 22.4 1.2 11.3 1.3 11.1-.9 11.6-1.2.2-6.6.9-12.1 1.5s-11.1 1.3-12.5 1.5c-1.4.2-5 .6-8 1-3 .3-7.1.8-9 1-1.9.2-7.3.9-12 1.5s-10.1 1.3-12 1.5c-6.6.7-13.5 1.6-17 2-1.9.3-6 .7-9 1-3 .3-6.4.7-7.5 1-1.1.2-4.5.7-7.5 1-3 .3-7.1.7-9 1-1.9.3-5.7.7-8.5 1-5.2.6-18.8 2.3-24.1 3-1.7.2-5.7.7-9 1-3.2.3-6.6.8-7.4 1-.8.2-4.6.7-8.5 1.1-3.8.3-7.7.8-8.5.9-.8.2-4.4.6-8 1-3.6.4-6.8.9-7.2 1.1-.4.3-1-.8-1.3-2.3-1.1-5.2-4.5-14.1-7.2-19-5.7-10.2-18.8-20.8-30.8-24.8-23.6-7.9-50.1 1.1-64.4 21.9C-9.1 147.3 1.6 187 32.5 202c3.3 1.6 7.3 3.1 8.8 3.4 1.5.3 3.8.8 5.1 1.1 12.9 2.7 32.4-1.4 42-8.8 1.8-1.4 2.5-1 9 4.6 3.9 3.3 7.3 6.3 7.6 6.6.3.4 7.7 6.9 16.5 14.6 8.8 7.7 17.6 15.4 19.5 17.1 1.9 1.7 6.2 5.5 9.5 8.4 3.3 2.9 7.8 6.9 10.1 8.9 3.9 3.5 14.1 12.3 19.2 16.7l2.5 2.2-4.7 6c-17.8 23.2-31.5 55.9-35.2 83.7-.3 2.7-.8 5.4-1.1 5.8-.9 1.5-1.2 35.2-.3 42.2 1.8 14.8 2.2 17.3 4.6 26.7 4.1 16.4 12.5 37.4 19.9 49.3 1.3 2.2 3.2 5.3 4.1 7 .9 1.6 4.4 6.6 7.8 11 30.9 40.8 73.3 66.2 123.6 74.1 14.2 2.2 42.2 2.2 55.5 0 29-4.8 56-15.2 77.5-29.9 5.5-3.8 17.1-12.6 18.5-14.1 4-4.3 1.7-7 49.1 56.3 24.7 32.9 45.4 59.6 46 59.4.7-.2.1 1.9-1.3 4.7-5.3 11-2.3 24.4 7.2 32.8 17.7 15.5 45.5 4 47-19.5.3-5.5-.4-8.8-3.1-15-1.8-4-10.5-11.8-14.8-13.4-3.1-1.1-3.3-1.4-2.5-4.3.4-1.7 1-6.3 1.4-10.1.3-3.9.8-8.4 1-10 .2-1.7.7-5.6 1-8.8 1.1-12.6 1.6-17.4 2-21.2.2-2.2.7-6.5 1-9.5.3-3 .8-7.8 1.1-10.5.3-2.8.7-6.6.9-8.5.2-1.9.6-6.7 1-10.5.3-3.9.8-8.1 1-9.5.2-1.4.7-5.7 1-9.5.3-3.9.8-8.8 1-11 .7-6.2 2.3-22.3 3-29 .3-3.3.8-7.8 1-10 .3-2.2.7-6.5 1-9.5.3-3 .7-7.5 1-10 1.4-13.1 1.7-15.8 2-19 .7-7.4 1.8-17.6 2-19 .2-.8.4-3.2.4-5.3l.1-3.8 4.3.6c2.3.2 5.8.7 7.7 1 1.9.3 5.5.7 8 1 2.5.3 5.6.8 7 1 1.4.2 4.5.7 7 1 5.2.8 6 1.2 6 3 0 3 4.1 10.5 7.7 14 5.6 5.6 11.4 7.9 19.8 7.9 11.8-.1 20.4-5.4 25.6-16 2.8-5.6 3.1-7.1 2.7-13.1-.3-4.1-1.3-8.7-2.6-11.4-2.8-6-10-12.3-16.4-14.5-6.2-2-15.7-1.5-21.3 1.1-4.9 2.4-11.7 9-13.5 13.2-1.1 2.5-1.6 2.8-2.6 1.8-.7-.7-4.4-1.6-8.1-2-7.9-1-6.9-.8-15.8-2-3.8-.5-7.3-1-7.7-1.1-.5-.1-2-.2-3.4-.3-2.5-.1-2.5-.2-1.9-5.9.8-7.7 1.4-13.5 2-20.7.3-3.3.8-7.1 1-8.5.2-1.4.6-5.7.9-9.5 1.2-12.9 2.5-26 3.1-29.5.2-1.4.7-6.1 1-10.4.4-4.3.8-8.6 1-9.5.1-.9.6-5 .9-9.1.4-4.1.9-9.1 1.1-11 .2-1.9.6-6.2.9-9.5.8-8.3 1.6-16.3 2.1-20.5.2-1.9.7-6.7 1.1-10.5.3-3.9.8-7.7.9-8.6.2-.9.6-5.2 1-9.5s.8-9 1-10.4c.2-1.4.7-5.7 1-9.5.4-3.9.8-8.1 1-9.5.2-1.4.7-6.1 1-10.5.4-4.4.9-8.8 1.1-9.8.1-.9.6-5.4 1-10 .4-4.5.8-8.9 1-9.7.1-.8.3-2.6.3-4 .1-2.3.6-2.6 3.9-2.8 11.4-.8 24.6-7 33.8-15.9 19-18.5 22.5-48.3 8.3-70.4-8.2-12.7-22.4-22.4-37-25.5-3-.6-17.7-.7-20.4-.1-13.2 3-21.1 7.3-30.1 16.2-7.8 7.8-13.3 17.7-15.4 27.8-.6 3.1-1.6 5.5-2.1 5.2-.5-.3-4.6-.1-9.1.5-16.8 2.2-17.3 2.2-27.8 3.5-3 .3-9.1 1-13.5 1.6-10.9 1.3-14.1 1.7-20.5 2.4-3 .4-6.6.8-8 1-7.6 1.1-11 1.5-16 2-6.3.7-9.3 1-21 2.5-4.7.6-10.1 1.3-12 1.5-1.9.2-6 .7-9 1-3 .4-6.6.8-8 1-1.4.2-5 .7-8 1-3 .4-6.6.9-8 1-1.4.2-5.4.6-9 1-3.6.4-7.2.8-8 1-.8.2-4 .7-7 1-13.1 1.4-21.5 2.4-33 3.9-17.7 2.3-25 2.9-25.1 2 0-.5-.2-1.7-.4-2.7-.2-.9-.6-5.2-.9-9.5-.7-8.3-1.5-16.6-2.1-22.2-.2-1.9-.7-6.9-1-11-.3-4.1-.8-9.1-1.1-11.1-.4-3.5-.3-3.7 5-6.3 10.2-5 15.9-14.3 15.9-25.7 0-10.8-5.1-19.5-14.8-25-5.9-3.3-19.3-3.8-25.2-.8zm270.2 106.5c1.3 5.5 4.8 13.5 7.6 17.6 1.1 1.4 1.9 2.8 1.9 3.1 0 .9-126.1 126.7-127 126.7-.4 0-1.4-.8-2.1-1.7-1.7-2.1-21.2-16.6-24.8-18.4-1.4-.8-2.8-1.7-3.1-2.1-.9-1.1-24.8-12.8-26.3-12.8-.7 0-1.7-.4-2.3-.9-1.5-1.4-25.4-8.6-31.8-9.6-1.2-.2-5.3-.9-9.1-1.5-3.9-.6-9.5-1.3-12.5-1.5-3-.1-6.2-.4-7-.4-1.1-.1-1.5-1.4-1.6-4.9-.1-2.6-.4-7.9-.8-11.7-.4-3.9-.9-9.3-1.1-12-.6-7.4-1.5-16.5-2-20.5-.2-1.9-.7-7.1-1.1-11.5-.3-4.4-.7-9.2-.9-10.8-.3-3.2-1.2-3 18-5.3 7.7-.9 14.9-1.7 16-1.9 4-.5 13.1-1.6 17-2 3.7-.3 33.7-4 41.5-5 1.9-.3 5.5-.7 8-1 2.5-.3 6.3-.8 8.5-1.1 2.2-.2 5.6-.7 7.5-.9 11.7-1.3 14.8-1.7 17-2 1.4-.2 5-.6 8-1 3-.3 8.9-1 13.1-1.6 4.1-.5 9.3-1.1 11.5-1.4 2.1-.2 5.5-.6 7.4-.9 1.9-.2 6-.7 9-1.1 3-.3 7.1-.8 9-1 1.9-.3 7.6-.9 12.5-1.5 5-.6 10.7-1.3 12.8-1.6 2.1-.3 5.3-.7 7-.9 10.9-1.1 15.2-1.7 15.5-2 .2-.2 1.1-.2 2-.1 1 .2 2 2 2.7 5.2zm-259.4 28.1c0 1 .2 2.5.3 3.3.2.8.6 5.7 1 10.7.4 5.1.9 10.3 1.1 11.5.2 1.3.6 5.9 1 10.3s.8 9.6 1 11.5c.2 1.9.7 6.4 1 10 .4 3.6.8 8 1 9.7.3 2.6 0 3.3-1.3 3.4-4.3.2-16 1.5-22.2 2.5-7.1 1.1-26.7 6.4-34.5 9.4-24.1 9.3-45.6 22.8-63.7 40-4.7 4.4-7.4 6.4-7.6 5.4-.2-.8-.7-1.4-1.1-1.4-.4 0-2.5-1.7-4.7-3.8-2.3-2-5.5-4.9-7.3-6.3-1.7-1.5-5.1-4.4-7.4-6.5-2.3-2.2-9.6-8.6-16.2-14.4-6.6-5.7-12.2-10.7-12.5-11-.3-.3-3.9-3.4-8-7s-7.7-6.7-8-7c-.3-.3-4.1-3.7-8.5-7.5-4.4-3.9-9.7-8.6-11.8-10.6l-3.9-3.5 3.1-5.1c3.4-5.6 7.1-15.3 7.1-18.9 0-2.4 1.1-2.7 12.5-3.9 2.8-.3 6.8-.7 9-1 2.2-.3 6.3-.7 9-1.1 2.8-.3 6.1-.7 7.5-.9 1.4-.3 4.8-.7 7.5-.9 2.8-.3 6.6-.8 8.5-1 1.9-.3 5.3-.8 7.5-1 6.4-.8 19.6-2.4 25-3.1 2.8-.4 6.8-.8 9-1 2.2-.3 6-.7 8.5-1 6.9-.9 11-1.4 16.5-2 2.8-.3 6.1-.8 7.5-1 1.4-.2 5-.6 8-1 6.4-.7 9.6-1.1 20.5-2.4 4.4-.6 10.5-1.3 13.5-1.7 3-.3 6.9-.8 8.5-1 1.7-.2 5.3-.6 8-1 2.8-.3 5.1-.7 5.2-.7.1-.1 2.4-.3 5.2-.5 4.3-.3 5.1 0 5.2 1.5zM610 148.4c4 1.2 4.5 1.6 4.4 4.2-.1 3.2-1.2 16.1-1.8 20.9-.3 1.6-.7 6.1-1 10-.4 3.8-.8 8.6-1.1 10.5-.2 1.9-.7 6.4-1 10-.4 3.6-.8 7.6-1 9-.1 1.4-.6 5.9-1 10-.3 4.1-.8 8.6-1 10-.2 1.4-.7 5.9-1 10-.4 4.1-.9 8.2-1 9.1-.2.8-.6 5.5-1 10.5-.3 4.9-.8 9.6-1 10.4-.2.8-.7 4.6-1 8.5-.4 3.8-.8 8.6-1.1 10.5-.2 1.9-.6 6.4-.9 10-.4 3.6-.8 7.6-1 9-.2 1.4-.6 5.4-1 9-.3 3.6-.8 8.5-1 11-1 9.1-1.4 12.6-2 19-.3 3.6-.8 8.1-1 10-.3 1.9-.7 6.4-1 10-.3 3.6-.8 8.1-1 10-.2 1.9-.7 6.4-1 10-.7 6.9-1.2 8.3-2.4 7.6-.4-.3-2.9-.7-5.7-1-2.7-.4-6-.8-7.4-1.1-1.4-.2-5-.7-8-1.1-3-.4-6.4-.8-7.5-.9-12.2-1.7-19.4-2.7-21.1-3-1.2-.2-6.5-.9-11.8-1.5l-9.6-1.2v-5.3c0-6.6-3.3-26.5-6-36.5-4.9-17.6-12.3-34.5-22.2-50.4-5.4-8.7-16.2-22.9-19.7-26l-2.2-2 63.7-63.7 63.6-63.6 5.7 3.4c3.1 1.8 7.6 4 10.1 4.7zm-86.3 255.5c2.6.6 7.1 1.2 9.8 1.6 6.9.7 12.8 1.5 23 3 1.1.2 4.3.6 7 .9 2.8.3 6.1.8 7.5 1.1 1.4.2 4.5.7 7 1 2.5.3 5.8.8 7.3 1.1l2.9.6-.7 6.4c-.3 3.4-.8 7.3-1 8.6-.2 1.3-.6 5.4-1 9.3-.6 6.7-1 10.4-2 20.5-.3 2.5-.7 7-1 10-.3 3-.7 7.5-1 10-.2 2.5-.7 7-1 10-.3 3-.8 7.5-1 10-.3 2.5-.7 7-1 10-.3 3-.8 7.3-1 9.5-.3 2.2-.7 6.7-1 10-.3 3.3-.8 7.3-1 9-.4 3.1-1.1 9.8-2 19.5-.3 3-.8 7.3-1 9.5-.2 2.2-.7 7.4-1.1 11.5-.3 4.1-.8 8.2-.9 9.1-.2.9-.6 5.2-1 9.5s-.8 9-1 10.4c-.2 1.4-.7 5.6-1 9.5-.4 3.8-.8 8.1-1 9.5-1.4 9.3-1.6 16-.6 16 .6 0 1.1.3 1.1.8 0 1.1-8.2 3.4-9.1 2.5-1.7-1.8-89.2-118.8-89.6-119.9-.2-.6.9-2.5 2.4-4.1 9.2-9.8 22-29.3 28.5-43.3 7.3-15.6 14.1-36.8 15.4-47.6.3-2.7.8-5.2 1-5.6.2-.3.7-4.6 1-9.5.5-8.9.9-11.3 1.8-11.3.3 0 2.7.4 5.3.9z"/></svg>